<svg width="23" height="22" viewBox="0 0 23 22" fill="none" xmlns="http://www.w3.org/2000/svg">
<path d="M8.77274 21C9.27482 21 9.68183 20.5736 9.68183 20.0476C9.68183 19.5216 9.27482 19.0952 8.77274 19.0952C8.27066 19.0952 7.86365 19.5216 7.86365 20.0476C7.86365 20.5736 8.27066 21 8.77274 21Z" stroke="#1E1E1E" stroke-opacity="0.53" stroke-width="2" stroke-linecap="round" stroke-linejoin="round"/>
<path d="M18.7727 21C19.2748 21 19.6818 20.5736 19.6818 20.0476C19.6818 19.5216 19.2748 19.0952 18.7727 19.0952C18.2707 19.0952 17.8636 19.5216 17.8636 20.0476C17.8636 20.5736 18.2707 21 18.7727 21Z" stroke="#1E1E1E" stroke-opacity="0.53" stroke-width="2" stroke-linecap="round" stroke-linejoin="round"/>
<path d="M1.5 1H5.13636L7.57273 13.7524C7.65586 14.1909 7.88355 14.5847 8.21595 14.8651C8.54835 15.1454 8.96427 15.2943 9.39091 15.2857H18.2273C18.6539 15.2943 19.0698 15.1454 19.4022 14.8651C19.7346 14.5847 19.9623 14.1909 20.0455 13.7524L21.5 5.76191H6.04545" stroke="#1E1E1E" stroke-opacity="0.53" stroke-width="2" stroke-linecap="round" stroke-linejoin="round"/>
</svg>
