<svg width="23" height="22" viewBox="0 0 23 22" fill="none" xmlns="http://www.w3.org/2000/svg">
<path d="M7.75 1H2.75C2.05964 1 1.5 1.55964 1.5 2.24998V7.24992C1.5 7.94027 2.05964 8.49991 2.75 8.49991H7.75C8.44036 8.49991 9 7.94027 9 7.24992V2.24998C9 1.55964 8.44036 1 7.75 1Z" stroke="#1E1E1E" stroke-opacity="0.53" stroke-width="1.5" stroke-linecap="round" stroke-linejoin="round"/>
<path d="M20.25 1H15.25C14.5596 1 14 1.55964 14 2.24998V7.24992C14 7.94027 14.5596 8.49991 15.25 8.49991H20.25C20.9404 8.49991 21.5 7.94027 21.5 7.24992V2.24998C21.5 1.55964 20.9404 1 20.25 1Z" stroke="#1E1E1E" stroke-opacity="0.53" stroke-width="1.5" stroke-linecap="round" stroke-linejoin="round"/>
<path d="M7.75 13.5002H2.75C2.05964 13.5002 1.5 14.0599 1.5 14.7502V19.7502C1.5 20.4405 2.05964 21.0002 2.75 21.0002H7.75C8.44036 21.0002 9 20.4405 9 19.7502V14.7502C9 14.0599 8.44036 13.5002 7.75 13.5002Z" stroke="#1E1E1E" stroke-opacity="0.53" stroke-width="1.5" stroke-linecap="round" stroke-linejoin="round"/>
<path d="M20.25 13.5002H15.25C14.5596 13.5002 14 14.0599 14 14.7502V19.7502C14 20.4405 14.5596 21.0002 15.25 21.0002H20.25C20.9404 21.0002 21.5 20.4405 21.5 19.7502V14.7502C21.5 14.0599 20.9404 13.5002 20.25 13.5002Z" stroke="#1E1E1E" stroke-opacity="0.53" stroke-width="1.5" stroke-linecap="round" stroke-linejoin="round"/>
</svg>
